<?xml version="1.0" encoding="UTF-8" standalone="no"?>
<!-- Created with Inkscape (http://www.inkscape.org/) -->

<svg
   width="512"
   height="512"
   viewBox="0 0 135.46667 135.46667"
   version="1.1"
   id="svg5"
   xml:space="preserve"
   sodipodi:docname="kaffeine_inactive.svg"
   inkscape:version="1.2.2 (b0a8486541, 2022-12-01)"
   xmlns:inkscape="http://www.inkscape.org/namespaces/inkscape"
   xmlns:sodipodi="http://sodipodi.sourceforge.net/DTD/sodipodi-0.dtd"
   xmlns="http://www.w3.org/2000/svg"
   xmlns:svg="http://www.w3.org/2000/svg"><sodipodi:namedview
     id="namedview7"
     pagecolor="#ffffff"
     bordercolor="#000000"
     borderopacity="0.25"
     inkscape:showpageshadow="2"
     inkscape:pageopacity="0.0"
     inkscape:pagecheckerboard="0"
     inkscape:deskcolor="#d1d1d1"
     inkscape:document-units="px"
     showgrid="false"
     inkscape:zoom="1.4142136"
     inkscape:cx="257.03331"
     inkscape:cy="296.63129"
     inkscape:window-width="1831"
     inkscape:window-height="1271"
     inkscape:window-x="1112"
     inkscape:window-y="339"
     inkscape:window-maximized="0"
     inkscape:current-layer="layer1" /><defs
     id="defs2" /><g
     inkscape:label="Layer 1"
     inkscape:groupmode="layer"
     id="layer1"><g
       id="g325"
       transform="matrix(3.8233989,0,0,3.8233989,-183.08836,-121.04605)"><path
         style="fill:#d0d0d0;fill-opacity:1;stroke-width:0.0846667"
         d="m 61.897871,66.105119 c 0.05821,-0.02349 0.153458,-0.02349 0.211666,0 0.05821,0.02349 0.01058,0.0427 -0.105833,0.0427 -0.116417,0 -0.164042,-0.01922 -0.105833,-0.0427 z m 2.54,0 c 0.05821,-0.02349 0.153458,-0.02349 0.211666,0 0.05821,0.02349 0.01058,0.0427 -0.105833,0.0427 -0.116417,0 -0.164042,-0.01922 -0.105833,-0.0427 z M 79.546209,54.011526 c 0.0017,-0.1397 0.0207,-0.1866 0.04217,-0.104222 0.02147,0.08238 0.02005,0.196678 -0.0031,0.254 -0.02319,0.05732 -0.04076,-0.01008 -0.03903,-0.149778 z m -2.233714,-1.370169 c 0.06112,-0.02446 0.134144,-0.02145 0.162278,0.0067 0.02813,0.02813 -0.02187,0.04814 -0.111125,0.04447 -0.09863,-0.0041 -0.118694,-0.02412 -0.05115,-0.05115 z m -26.13944,-0.499552 c 0.0041,-0.09863 0.02413,-0.118695 0.05115,-0.05115 0.02446,0.06112 0.02145,0.134143 -0.0067,0.162278 -0.02813,0.02813 -0.04814,-0.02187 -0.04447,-0.111125 z m -0.06177,-1.897945 c 0,-0.395817 0.01458,-0.557742 0.03241,-0.359833 0.01783,0.197908 0.01783,0.521758 0,0.719666 -0.01783,0.197909 -0.03241,0.03598 -0.03241,-0.359833 z m 10.237861,0.279993 c 0.08238,-0.02147 0.196678,-0.02005 0.254,0.0031 0.05732,0.02319 -0.01008,0.04076 -0.149778,0.03903 -0.1397,-0.0017 -0.186601,-0.0207 -0.104222,-0.04217 z m 3.640666,0 c 0.08238,-0.02147 0.196678,-0.02005 0.254,0.0031 0.05732,0.02319 -0.01008,0.04076 -0.149778,0.03903 -0.1397,-0.0017 -0.1866,-0.0207 -0.104222,-0.04217 z M 75.996481,49.84652 c 0.08238,-0.02147 0.196678,-0.02005 0.254,0.0031 0.05732,0.02319 -0.01008,0.04076 -0.149778,0.03903 -0.1397,-0.0017 -0.1866,-0.0207 -0.104222,-0.04217 z m -0.60876,-0.160049 c 0.0041,-0.09863 0.02412,-0.118694 0.05115,-0.05115 0.02446,0.06112 0.02145,0.134144 -0.0067,0.162278 -0.02813,0.02813 -0.04814,-0.02187 -0.04447,-0.111125 z M 54.651072,48.550527 c 0,-0.116417 0.01922,-0.164042 0.0427,-0.105834 0.02349,0.05821 0.02349,0.153459 0,0.211667 -0.02349,0.05821 -0.0427,0.01058 -0.0427,-0.105833 z m 17.187333,0 c 0,-0.116417 0.01922,-0.164042 0.04271,-0.105834 0.02349,0.05821 0.02349,0.153459 0,0.211667 -0.02349,0.05821 -0.04271,0.01058 -0.04271,-0.105833 z M 61.305204,46.54712 c 0.05821,-0.02349 0.153458,-0.02349 0.211667,0 0.05821,0.02349 0.01058,0.0427 -0.105834,0.0427 -0.116416,0 -0.164041,-0.01922 -0.105833,-0.0427 z m 3.725333,0 c 0.05821,-0.02349 0.153458,-0.02349 0.211667,0 0.05821,0.02349 0.01058,0.0427 -0.105834,0.0427 -0.116416,0 -0.164041,-0.01922 -0.105833,-0.0427 z m -3.427388,-2.0346 c 0.08238,-0.02147 0.196678,-0.02005 0.254,0.0031 0.05732,0.02319 -0.01008,0.04076 -0.149778,0.03903 -0.1397,-0.0017 -0.186601,-0.0207 -0.104222,-0.04217 z m 3.132666,0 c 0.08238,-0.02147 0.196678,-0.02005 0.254,0.0031 0.05732,0.02319 -0.01008,0.04076 -0.149778,0.03903 -0.1397,-0.0017 -0.1866,-0.0207 -0.104222,-0.04217 z"
         id="path331" /><path
         style="fill:#b9b9b9;fill-opacity:1;stroke-width:0.0846667"
         d="m 62.278871,66.102829 c 0.08149,-0.02129 0.214841,-0.02129 0.296333,0 0.08149,0.0213 0.01482,0.03872 -0.148167,0.03872 -0.162983,0 -0.229658,-0.01742 -0.148166,-0.03872 z m 1.693333,0 c 0.08149,-0.02129 0.214842,-0.02129 0.296333,0 0.08149,0.0213 0.01482,0.03872 -0.148166,0.03872 -0.162984,0 -0.229659,-0.01742 -0.148167,-0.03872 z m -8.8373,-2.545136 c -0.105314,-0.134287 -0.102319,-0.137281 0.03197,-0.03197 0.08149,0.06391 0.148167,0.130585 0.148167,0.148166 0,0.06968 -0.06953,0.02483 -0.180134,-0.116199 z m 16.097466,0.116199 c 0,-0.01758 0.06668,-0.08426 0.148167,-0.148166 0.134286,-0.105314 0.137281,-0.10232 0.03197,0.03197 -0.110606,0.141033 -0.180134,0.185884 -0.180134,0.116199 z m 3.201458,-1.719203 c 0.06112,-0.02446 0.134144,-0.02145 0.162278,0.0067 0.02813,0.02813 -0.02187,0.04814 -0.111125,0.04447 -0.09863,-0.0041 -0.118694,-0.02412 -0.05115,-0.05115 z m 3.571875,-3.953463 c 0,-0.01758 0.06668,-0.08426 0.148167,-0.148167 0.134286,-0.105314 0.137281,-0.102319 0.03197,0.03197 -0.110606,0.141034 -0.180134,0.185884 -0.180134,0.1162 z M 51.173055,51.887805 c 0.0041,-0.09863 0.02413,-0.118695 0.05115,-0.05115 0.02446,0.06112 0.02145,0.134143 -0.0067,0.162278 -0.02813,0.02813 -0.04814,-0.02187 -0.04447,-0.111125 z M 81.38157,51.535027 c -0.105315,-0.134287 -0.10232,-0.137282 0.03197,-0.03197 0.08149,0.06391 0.148167,0.130585 0.148167,0.148166 0,0.06968 -0.06953,0.02483 -0.180133,-0.116199 z M 61.056496,50.52469 c 0.06112,-0.02446 0.134143,-0.02145 0.162278,0.0067 0.02813,0.02813 -0.02187,0.04814 -0.111125,0.04447 -0.09863,-0.0041 -0.118694,-0.02413 -0.05115,-0.05115 z m 4.317999,0 c 0.06112,-0.02446 0.134145,-0.02145 0.162279,0.0067 0.02813,0.02813 -0.02187,0.04814 -0.111125,0.04447 -0.09863,-0.0041 -0.118695,-0.02413 -0.05115,-0.05115 z m -5.418666,-0.08467 c 0.06112,-0.02446 0.134143,-0.02145 0.162278,0.0067 0.02813,0.02813 -0.02187,0.04814 -0.111125,0.04447 -0.09863,-0.0041 -0.118694,-0.02412 -0.05115,-0.05115 z m 6.519333,0 c 0.06112,-0.02446 0.134144,-0.02145 0.162278,0.0067 0.02813,0.02813 -0.02187,0.04814 -0.111125,0.04447 -0.09863,-0.0041 -0.118694,-0.02412 -0.05115,-0.05115 z m 9.097986,-0.593503 c 0.08238,-0.02147 0.196678,-0.02005 0.254,0.0031 0.05732,0.02319 -0.01008,0.04076 -0.149778,0.03903 -0.1397,-0.0017 -0.1866,-0.0207 -0.104222,-0.04217 z M 59.955829,46.630024 c 0.06112,-0.02446 0.134143,-0.02145 0.162278,0.0067 0.02813,0.02813 -0.02187,0.04814 -0.111125,0.04447 -0.09863,-0.0041 -0.118694,-0.02412 -0.05115,-0.05115 z m 6.519333,0 c 0.06112,-0.02446 0.134144,-0.02145 0.162278,0.0067 0.02813,0.02813 -0.02187,0.04814 -0.111125,0.04447 -0.09863,-0.0041 -0.118694,-0.02412 -0.05115,-0.05115 z m -5.418666,-0.08467 c 0.06112,-0.02446 0.134143,-0.02145 0.162278,0.0067 0.02813,0.02813 -0.02187,0.04814 -0.111125,0.04447 -0.09863,-0.0041 -0.118694,-0.02412 -0.05115,-0.05115 z m 4.317999,0 c 0.06112,-0.02446 0.134145,-0.02145 0.162279,0.0067 0.02813,0.02813 -0.02187,0.04814 -0.111125,0.04447 -0.09863,-0.0041 -0.118695,-0.02412 -0.05115,-0.05115 z m -4.825999,-1.947333 c 0.06112,-0.02446 0.134143,-0.02145 0.162278,0.0067 0.02813,0.02813 -0.02187,0.04815 -0.111125,0.04447 -0.09863,-0.0041 -0.118694,-0.02412 -0.05115,-0.05115 z m 5.333999,0 c 0.06112,-0.02446 0.134145,-0.02145 0.162278,0.0067 0.02813,0.02813 -0.02187,0.04815 -0.111125,0.04447 -0.09863,-0.0041 -0.118694,-0.02412 -0.05115,-0.05115 z m -3.771794,-0.08759 c 0.128699,-0.01946 0.319199,-0.01894 0.423334,0.0012 0.104135,0.0201 -0.0012,0.03602 -0.233998,0.03538 -0.232833,-6.77e-4 -0.318034,-0.01708 -0.189336,-0.03654 z m 1.947334,0 c 0.128698,-0.01946 0.319198,-0.01894 0.423333,0.0012 0.104135,0.0201 -0.0012,0.03602 -0.233997,0.03538 -0.232834,-6.77e-4 -0.318035,-0.01708 -0.189336,-0.03654 z"
         id="path329" /><path
         style="fill:#a3a3a3;fill-opacity:1;stroke-width:0.0846667"
         d="m 61.792037,66.077463 c -2.474831,-0.178616 -4.533955,-0.726511 -5.55816,-1.478923 -0.489882,-0.359881 -1.320314,-1.317748 -1.871541,-2.158739 -1.832651,-2.796023 -3.193448,-7.955331 -3.194419,-12.111274 -3.21e-4,-1.39161 0.109693,-2.127642 0.389588,-2.606395 0.434685,-0.743516 1.625815,-1.459547 3.41742,-2.054334 5.918935,-1.965002 16.0244,-1.274019 19.331813,1.321855 0.672588,0.527891 0.894853,0.951661 1.004604,1.915376 0.04939,0.433674 0.103129,0.836123 0.119422,0.894331 0.02072,0.07404 0.245752,0.105833 0.749037,0.105833 0.872841,0 2.348321,0.197438 3.115906,0.416948 1.6218,0.463793 2.591251,1.428598 2.850766,2.837102 0.12503,0.678599 0.116802,1.060834 -0.04309,2.00153 -0.276375,1.626032 -0.898881,3.164377 -1.684556,4.162893 -1.180087,1.499775 -3.534044,2.503484 -6.191854,2.640158 -0.36645,0.01884 -0.924186,0.06214 -1.239412,0.09621 l -0.573138,0.06195 -0.454178,0.64377 c -1.238432,1.755404 -2.07199,2.334216 -4.094512,2.843173 -1.610148,0.405186 -4.191926,0.604348 -6.0737,0.468535 z m 12.836464,-6.694676 c 0.07506,-0.04016 0.494155,-0.150226 0.931333,-0.244582 0.467424,-0.100883 1.077579,-0.3107 1.481143,-0.509326 1.419271,-0.698539 2.011545,-1.624624 2.448555,-3.828584 0.335178,-1.690391 -0.148027,-2.068752 -2.774177,-2.172246 -1.531055,-0.06034 -1.503178,-0.06767 -1.504103,0.395569 -0.0016,0.814604 -0.678811,3.884214 -1.197492,5.428109 -0.179331,0.533794 -0.326057,1.00522 -0.326057,1.047614 0,0.08719 0.72879,-0.0031 0.940798,-0.116554 z m -6.994464,-9.049272 c 2.154,-0.328486 3.547307,-0.789991 4.023946,-1.332853 0.31648,-0.360452 0.31648,-0.539818 0,-0.900271 -0.478519,-0.545002 -1.857003,-1.000103 -4.066279,-1.342467 -1.105531,-0.171319 -1.535112,-0.190246 -4.318,-0.190246 -2.782888,0 -3.212469,0.01893 -4.318,0.190246 -2.209277,0.342364 -3.58776,0.797465 -4.066279,1.342467 -0.309718,0.35275 -0.315641,0.530512 -0.02903,0.871136 0.441326,0.524485 1.69805,0.974948 3.569357,1.279407 1.710823,0.278349 2.471098,0.32002 5.309614,0.291023 2.239241,-0.02287 2.914997,-0.05904 3.894666,-0.208442 z"
         id="path327" /></g><g
       id="g491"
       transform="matrix(3.8393158,0.0122054,-0.0122054,3.8393158,-196.14404,-224.57585)"
       style="display:none"><path
         style="fill:#d0d0d0;fill-opacity:1;stroke-width:0.0846667"
         d="m 77.388859,85.778215 c 0.06112,-0.02446 0.134144,-0.02145 0.162278,0.0067 0.02813,0.02813 -0.02187,0.04814 -0.111125,0.04447 -0.09863,-0.0041 -0.118694,-0.02412 -0.05115,-0.05115 z m 8.24191,-5.191497 c 0,-0.116416 0.01922,-0.164041 0.0427,-0.105833 0.02349,0.05821 0.02349,0.153458 0,0.211667 -0.02349,0.05821 -0.0427,0.01058 -0.0427,-0.105834 z m -5.537868,-1.326073 c 0.05821,-0.02349 0.153458,-0.02349 0.211666,0 0.05821,0.02349 0.01058,0.0427 -0.105833,0.0427 -0.116417,0 -0.164042,-0.01922 -0.105833,-0.0427 z M 65.445567,77.143978 c 0.05821,-0.02349 0.153458,-0.02349 0.211666,0 0.05821,0.02349 0.01058,0.0427 -0.105833,0.0427 -0.116417,0 -0.164042,-0.01922 -0.105833,-0.0427 z m 2.291291,-0.0018 c 0.06112,-0.02446 0.134144,-0.02145 0.162279,0.0067 0.02813,0.02813 -0.02187,0.04814 -0.111125,0.04447 -0.09863,-0.0041 -0.118695,-0.02412 -0.05115,-0.05115 z m -2.286,-3.979333 c 0.06112,-0.02446 0.134144,-0.02145 0.162278,0.0067 0.02813,0.02813 -0.02187,0.04815 -0.111125,0.04447 -0.09863,-0.0041 -0.118694,-0.02412 -0.05115,-0.05115 z m 0.566209,-9.424833 c 0.08429,-0.09313 0.172295,-0.169333 0.195578,-0.169333 0.02328,0 -0.02663,0.0762 -0.110912,0.169333 -0.08428,0.09313 -0.172295,0.169333 -0.195578,0.169333 -0.02328,0 0.02663,-0.0762 0.110912,-0.169333 z"
         id="path507" /><path
         style="fill:#b9b9b9;fill-opacity:1;stroke-width:0.0846667"
         d="m 74.399067,90.577385 c 0.08428,-0.09313 0.172295,-0.169333 0.195578,-0.169333 0.02328,0 -0.02663,0.0762 -0.110911,0.169333 -0.08428,0.09313 -0.172295,0.169334 -0.195579,0.169334 -0.02328,0 0.02663,-0.0762 0.110912,-0.169334 z M 67.906192,73.162881 c 0.06112,-0.02446 0.134144,-0.02145 0.162278,0.0067 0.02813,0.02813 -0.02187,0.04815 -0.111125,0.04447 -0.09863,-0.0041 -0.118694,-0.02412 -0.05115,-0.05115 z"
         id="path505" /><path
         style="fill:#a3a3a3;fill-opacity:1;stroke-width:0.0846667"
         d="m 74.0604,90.916052 c 0.08428,-0.09313 0.172295,-0.169333 0.195579,-0.169333 0.02328,0 -0.02663,0.0762 -0.110912,0.169333 -0.08428,0.09313 -0.172295,0.169333 -0.195578,0.169333 -0.02328,0 0.02663,-0.0762 0.110911,-0.169333 z m 9.313334,-4.487334 c 0.08428,-0.09313 0.172295,-0.169333 0.195578,-0.169333 0.02328,0 -0.02663,0.0762 -0.110911,0.169333 -0.08428,0.09313 -0.172295,0.169334 -0.195579,0.169334 -0.02328,0 0.02663,-0.0762 0.110912,-0.169334 z M 54.46675,77.658663 c 0.0041,-0.09863 0.02413,-0.118694 0.05115,-0.05115 0.02446,0.06112 0.02145,0.134143 -0.0067,0.162278 -0.02813,0.02813 -0.04814,-0.02187 -0.04447,-0.111125 z m 0.67065,-3.707912 c 0,-0.01758 0.06668,-0.08426 0.148166,-0.148166 0.134287,-0.105315 0.137281,-0.10232 0.03197,0.03197 -0.110606,0.141034 -0.180133,0.185884 -0.180133,0.1162 z m 22.8492,-0.1162 c -0.105314,-0.134286 -0.102319,-0.137281 0.03197,-0.03197 0.141034,0.110606 0.185884,0.180133 0.1162,0.180133 -0.01758,0 -0.08426,-0.06668 -0.148167,-0.148167 z M 59.553435,66.616718 c 0,-0.116417 0.01922,-0.164042 0.0427,-0.105834 0.02349,0.05821 0.02349,0.153459 0,0.211667 -0.02349,0.05821 -0.0427,0.01058 -0.0427,-0.105833 z"
         id="path503" /><path
         style="fill:#8c8c8c;fill-opacity:1;stroke-width:0.0846667"
         d="m 54.46675,77.404663 c 0.0041,-0.09863 0.02413,-0.118694 0.05115,-0.05115 0.02446,0.06112 0.02145,0.134143 -0.0067,0.162278 -0.02813,0.02813 -0.04814,-0.02187 -0.04447,-0.111125 z m 10.735183,-9.242779 c -0.105314,-0.134286 -0.102319,-0.137281 0.03197,-0.03197 0.141034,0.110606 0.185884,0.180133 0.1162,0.180133 -0.01758,0 -0.08426,-0.06668 -0.148167,-0.148167 z"
         id="path501" /><path
         style="fill:#767676;fill-opacity:1;stroke-width:0.0846667"
         d="m 76.5369,88.573979 c 0.05821,-0.02349 0.153459,-0.02349 0.211667,0 0.05821,0.02349 0.01058,0.04271 -0.105833,0.04271 -0.116417,0 -0.164042,-0.01922 -0.105834,-0.04271 z m 6.377852,-7.951983 c 0.0041,-0.09863 0.02413,-0.118694 0.05115,-0.05115 0.02446,0.06112 0.02145,0.134144 -0.0067,0.162278 -0.02813,0.02813 -0.04815,-0.02187 -0.04447,-0.111125 z M 54.473435,77.115385 c 0,-0.116417 0.01922,-0.164042 0.0427,-0.105834 0.02349,0.05821 0.02349,0.153459 0,0.211667 -0.02349,0.05821 -0.0427,0.01058 -0.0427,-0.105833 z m 0.0031,-0.550334 c 0.0017,-0.1397 0.0207,-0.1866 0.04217,-0.104222 0.02147,0.08238 0.02006,0.196678 -0.0031,0.254 -0.02319,0.05732 -0.04076,-0.01008 -0.03903,-0.149778 z M 69.283418,62.164662 c 0.0041,-0.09863 0.02412,-0.118694 0.05115,-0.05115 0.02446,0.06112 0.02145,0.134144 -0.0067,0.162278 -0.02813,0.02813 -0.04814,-0.02187 -0.04447,-0.111125 z m -1.947333,-0.592667 c 0.0041,-0.09863 0.02412,-0.118694 0.05115,-0.05115 0.02446,0.06112 0.02145,0.134144 -0.0067,0.162278 -0.02813,0.02813 -0.04814,-0.02187 -0.04447,-0.111125 z"
         id="path499" /><path
         style="fill:#606060;fill-opacity:1;stroke-width:0.0846667"
         d="m 71.054734,65.050384 c 0.157969,-0.162983 0.306267,-0.296333 0.32955,-0.296333 0.02328,0 -0.08691,0.13335 -0.244884,0.296333 -0.157969,0.162984 -0.306267,0.296334 -0.32955,0.296334 -0.02328,0 0.08691,-0.13335 0.244884,-0.296334 z"
         id="path497" /><path
         style="fill:#494949;fill-opacity:1;stroke-width:0.0846667"
         d="m 62.199022,68.458218 -0.161289,-0.1905 0.1905,0.161289 c 0.179023,0.151572 0.229044,0.219711 0.161289,0.219711 -0.01607,0 -0.101791,-0.08572 -0.1905,-0.1905 z"
         id="path495" /><path
         style="fill:#333333;fill-opacity:1;stroke-width:0.0846667"
         d="m 64.924312,92.684022 c -1.908934,-0.146421 -3.7143,-0.578804 -4.814862,-1.153151 -1.302062,-0.679504 -2.724524,-2.649259 -3.745669,-5.186819 -1.06433,-2.644876 -1.70057,-5.771454 -1.792527,-8.808741 -0.07386,-2.439496 0.07847,-3.098792 0.878717,-3.803199 1.348082,-1.186629 4.291411,-2.083017 8.111762,-2.47043 1.332744,-0.135151 4.789997,-0.13519 6.180667,-7e-5 4.483056,0.43558 7.923037,1.683102 8.678046,3.147125 0.170926,0.331439 0.338955,1.129518 0.338955,1.609915 v 0.3115 l 0.613833,0.09412 c 0.337608,0.05176 0.981702,0.132955 1.431319,0.180427 2.643002,0.279058 3.976441,1.016893 4.571884,2.529775 0.284201,0.722087 0.270004,2.190836 -0.03291,3.404693 -0.824874,3.305499 -2.418584,4.963722 -5.483975,5.705968 -1.256447,0.304234 -2.355531,0.410599 -3.216819,0.311314 -0.395817,-0.04563 -0.730144,-0.0544 -0.742948,-0.0195 -0.102547,0.279524 -1.015538,1.508316 -1.515751,2.040045 -0.93575,0.994708 -2.038638,1.493492 -4.117358,1.862085 -1.733896,0.307449 -3.482363,0.387617 -5.342365,0.244948 z m 14.199375,-6.984535 c 1.25198,-0.280574 2.263154,-0.911055 2.865673,-1.786787 0.34755,-0.505147 0.620798,-1.276888 0.842023,-2.378146 0.161806,-0.805473 0.174517,-0.993355 0.08697,-1.285562 -0.204696,-0.683212 -0.965667,-0.938324 -3.158741,-1.058955 l -1.074123,-0.05908 -0.04589,0.283382 c -0.02524,0.155861 -0.08801,0.588182 -0.139482,0.960716 -0.211473,1.530476 -0.923339,4.431793 -1.303555,5.312833 -0.05793,0.13423 0.001,0.148167 0.626903,0.148167 0.379965,0 0.965066,-0.06145 1.300225,-0.136565 z m -8.449953,-8.707744 c 2.260169,-0.312393 3.692073,-0.750813 4.280551,-1.31062 0.428053,-0.407198 0.428053,-0.618946 0,-1.026143 -0.434619,-0.413444 -1.384115,-0.777757 -2.72696,-1.046311 -1.833743,-0.366729 -2.65724,-0.430284 -5.575258,-0.430284 -1.754248,0 -3.07391,0.04009 -3.640667,0.110588 -1.37681,0.17127 -2.912619,0.502747 -3.653976,0.788644 -0.753132,0.290439 -1.341358,0.768627 -1.341358,1.090434 0,0.321807 0.588226,0.799995 1.341358,1.090434 0.775174,0.298938 2.365528,0.632791 3.653976,0.767057 0.48895,0.05095 1.02235,0.107363 1.185333,0.125358 0.807681,0.08918 5.517651,-0.02656 6.477001,-0.159157 z M 63.235027,69.48345 c -0.08656,-0.0503 -0.410406,-0.144144 -0.719667,-0.208546 -1.196317,-0.249128 -2.35533,-1.064247 -2.720614,-1.913373 -0.156808,-0.364509 -0.182152,-0.538367 -0.141672,-0.971854 0.06509,-0.69706 0.331841,-1.217352 1.294351,-2.524626 1.187535,-1.612902 1.369252,-2.478517 0.674871,-3.214776 -0.15504,-0.16439 -0.272657,-0.298891 -0.261371,-0.298891 0.150276,0 0.862682,0.3283 1.233697,0.568527 0.701905,0.454474 0.883025,0.763216 0.879928,1.49994 -0.003,0.717666 -0.260543,1.316254 -1.023052,2.377978 -0.649909,0.90494 -0.896576,1.39995 -0.94411,1.89465 -0.0733,0.762897 0.341276,1.530575 1.170767,2.167905 0.665661,0.511455 0.892503,0.714305 0.798912,0.714417 -0.04657,5.6e-5 -0.155485,-0.04105 -0.24204,-0.09135 z m 3.640212,-0.241514 c -1.649507,-0.843566 -2.366502,-1.680005 -2.36994,-2.764747 -0.0025,-0.7985 0.330381,-1.388672 1.474227,-2.613459 0.518206,-0.554874 1.040891,-1.200671 1.161522,-1.435104 0.426795,-0.829429 0.240038,-1.624458 -0.634872,-2.702661 -0.715367,-0.881591 -0.707844,-0.852348 -0.156571,-0.608549 0.710056,0.31402 1.692357,0.947024 2.130694,1.373038 0.813525,0.790657 1.016839,1.812985 0.55325,2.78193 -0.133678,0.2794 -0.505123,0.808746 -0.825433,1.176324 -1.588647,1.823084 -1.810049,2.174344 -1.810049,2.871693 0,0.51978 0.237045,1.044328 0.753316,1.666983 0.322057,0.388422 0.46456,0.592667 0.413507,0.592667 -0.01568,0 -0.32602,-0.152152 -0.689651,-0.338115 z m 4.870893,0.08223 c -1.462526,-0.676671 -2.008256,-1.455766 -1.741314,-2.48593 0.189719,-0.732152 0.300866,-0.909529 1.112017,-1.77464 0.823093,-0.877847 1.168358,-1.325034 1.34192,-1.73805 0.180663,-0.429912 0.147969,-0.931971 -0.08751,-1.343811 l -0.205445,-0.359317 0.253856,0.131274 c 0.442653,0.228905 0.940959,0.742364 1.145199,1.180028 0.447195,0.958283 0.170491,1.877969 -0.92317,3.068356 -0.771209,0.839417 -0.952948,1.242871 -0.887079,1.969289 0.03281,0.361875 0.132596,0.664501 0.348775,1.057791 0.166546,0.302993 0.274957,0.549149 0.240913,0.547012 -0.03404,-0.0021 -0.303218,-0.115538 -0.598166,-0.252002 z"
         id="path493" /></g></g></svg>
